<?xml version="1.0" encoding="UTF-8"?>
<svg
  xmlns="http://www.w3.org/2000/svg"
  viewBox="400 400 180 180"
>

<path d="M0 0 C1.40114493 -0.01145438 2.80224852 -0.03180141 4.203125 -0.06152344 C13.2131378 -0.25231869 20.81061129 0.40589346 29.05786133 4.29516602 C30.15098633 4.80176758 31.24411133 5.30836914 32.37036133 5.83032227 C46.78937847 14.02485091 56.58048701 25.88736413 62.05786133 41.48266602 C63.05786133 45.29516602 63.05786133 45.29516602 63.05786133 48.29516602 C54.14786133 48.29516602 45.23786133 48.29516602 36.05786133 48.29516602 C34.07786133 44.66516602 32.09786133 41.03516602 30.05786133 37.29516602 C22.2500684 29.09036667 13.28635474 24.70169663 1.89770508 24.23266602 C-7.47767193 24.43900169 -15.97309914 27.93233094 -23.05541992 34.15063477 C-30.43964437 42.0724687 -33.04299481 50.54678339 -32.94213867 61.29516602 C-32.29092016 69.85799661 -27.99526055 77.75708301 -21.75463867 83.60766602 C-13.07009511 90.31152421 -3.40139083 93.06664981 7.49926758 92.07250977 C11.65622292 91.32787255 14.47510136 90.06138706 17.93286133 87.67016602 C25.09195618 83.42958718 34.05471311 84.88966905 42.05786133 85.29516602 C42.89236816 85.33480469 43.726875 85.37444336 44.58666992 85.4152832 C49.41491531 85.65266007 54.23621489 85.94943977 59.05786133 86.29516602 C52.71436357 102.13638693 39.79625762 112.61732975 24.50317383 119.34985352 C18.16726983 121.79919659 11.82185834 121.55227753 5.11572266 121.59033203 C3.71457772 121.60178641 2.31347414 121.62213344 0.91259766 121.65185547 C-8.09518649 121.84260353 -15.69902442 121.19092693 -23.94213867 117.29516602 C-25.59922852 116.51786133 -25.59922852 116.51786133 -27.28979492 115.72485352 C-43.1057605 106.66765309 -52.42295981 93.49128527 -57.94213867 76.29516602 C-62.00051441 61.3282899 -59.06147955 44.30499493 -52.37963867 30.67016602 C-44.108274 16.54425859 -30.86796295 5.67882119 -15.21337891 0.75097656 C-10.23920722 -0.24727976 -5.06059712 0.02871676 0 0 Z " fill="#A6CCFB" transform="translate(464.942138671875,439.704833984375)"/>
<path d="M0 0 C14.62757551 -0.91900998 26.6316573 4.10842365 37.921875 13.40625 C47.1853233 22.10672631 53.75838102 32.64132764 57 45 C57 45.99 57 46.98 57 48 C53.7 48 50.4 48 47 48 C46.79375 46.7625 46.5875 45.525 46.375 44.25 C42.91552415 29.02830626 33.10751163 17.31358654 20.28515625 8.9453125 C13.932284 5.18344522 7.48313333 1.60674054 0 1 C0 0.67 0 0.34 0 0 Z " fill="#2585C8" transform="translate(471,440)"/>
<path d="M0 0 C2.3828125 -0.29296875 2.3828125 -0.29296875 5.125 -0.1875 C6.03507813 -0.16042969 6.94515625 -0.13335938 7.8828125 -0.10546875 C8.58148437 -0.07066406 9.28015625 -0.03585937 10 0 C3.65650225 15.84122091 -9.26160371 26.32216373 -24.5546875 33.0546875 C-29.49896494 34.96605354 -33.98121307 35.12300727 -39.25 35.0625 C-39.99507813 35.05798828 -40.74015625 35.05347656 -41.5078125 35.04882812 C-43.3385764 35.03709246 -45.16929873 35.0191585 -47 35 C-44.17948608 33.46096679 -42.33930956 32.88464135 -39.0625 32.3125 C-23.79913778 29.07405637 -12.08886183 18.46214132 -3.8125 5.85546875 C-3.214375 4.91316406 -2.61625 3.97085938 -2 3 C-1.34 2.01 -0.68 1.02 0 0 Z " fill="#2585C8" transform="translate(514,526)"/>
<path d="M0 0 C4.34424085 1.73769634 7.12848983 3.37308879 10.8125 6.125 C11.78832031 6.84945313 12.76414062 7.57390625 13.76953125 8.3203125 C14.50558594 8.87460937 15.24164063 9.42890625 16 10 C15.65706924 12.94129073 15.04249107 13.9582958 12.890625 16.0703125 C12.01921875 16.74835938 11.1478125 17.42640625 10.25 18.125 C9.38890625 18.80820312 8.5278125 19.49140625 7.640625 20.1953125 C5 22 5 22 0 24 C0 16.08 0 8.16 0 0 Z " fill="#3C92F3" transform="translate(459,489)"/>
</svg>
