<svg width="723" height="144" viewBox="0 0 723 144" fill="none" xmlns="http://www.w3.org/2000/svg">
<path d="M77.024 108H36.448C33.2907 108 30.5173 107.445 28.128 106.336C25.7387 105.227 23.7333 103.733 22.112 101.856C20.4907 99.9787 19.2533 97.8453 18.4 95.456C17.632 92.9813 17.248 90.3787 17.248 87.648V74.464C17.248 69.6 18.144 65.12 19.936 61.024C21.728 56.928 24.16 53.3867 27.232 50.4C30.304 47.328 33.888 44.9813 37.984 43.36C42.08 41.6533 46.432 40.8 51.04 40.8H77.024V56.16H50.784C48.224 56.16 45.8347 56.6293 43.616 57.568C41.3973 58.5067 39.4773 59.7867 37.856 61.408C36.2347 63.0293 34.9547 64.9493 34.016 67.168C33.0773 69.3867 32.608 71.8187 32.608 74.464V87.264C32.608 89.2267 33.3333 90.6347 34.784 91.488C36.2347 92.256 37.8133 92.64 39.52 92.64H77.024V108ZM87.498 87.648V61.024C87.498 58.2933 87.9247 55.7333 88.778 53.344C89.6313 50.8693 90.8687 48.6933 92.49 46.816C94.1967 44.9387 96.2873 43.488 98.762 42.464C101.322 41.3547 104.309 40.8 107.722 40.8H132.81C136.223 40.8 139.167 41.3547 141.642 42.464C144.202 43.488 146.293 44.9387 147.914 46.816C149.621 48.6933 150.901 50.8693 151.754 53.344C152.607 55.7333 153.034 58.2933 153.034 61.024V87.648C153.034 90.3787 152.607 92.9813 151.754 95.456C150.986 97.8453 149.791 99.9787 148.17 101.856C146.549 103.733 144.543 105.227 142.154 106.336C139.765 107.445 136.991 108 133.834 108H106.698C103.541 108 100.767 107.445 98.378 106.336C95.9887 105.227 93.9833 103.733 92.362 101.856C90.7407 99.9787 89.5033 97.8453 88.65 95.456C87.882 92.9813 87.498 90.3787 87.498 87.648ZM130.762 56.16H109.77C105.162 56.16 102.858 57.9093 102.858 61.408V87.264C102.858 89.2267 103.583 90.6347 105.034 91.488C106.485 92.256 108.063 92.64 109.77 92.64H130.762C132.469 92.64 134.047 92.256 135.498 91.488C136.949 90.6347 137.674 89.2267 137.674 87.264V61.408C137.674 57.9093 135.37 56.16 130.762 56.16Z" fill="#EAEAEA"/>
<path d="M263.84 61.536C263.84 63.4987 264.565 64.864 266.016 65.632C267.467 66.4 269.045 66.784 270.752 66.784H307.872V82.144H267.68C264.523 82.144 261.749 81.5893 259.36 80.48C256.971 79.3707 254.965 77.8773 253.344 76C251.723 74.1227 250.485 71.9893 249.632 69.6C248.864 67.1253 248.48 64.5227 248.48 61.792V61.024C248.48 58.2933 248.907 55.7333 249.76 53.344C250.613 50.8693 251.851 48.6933 253.472 46.816C255.179 44.9387 257.269 43.488 259.744 42.464C262.304 41.3547 265.291 40.8 268.704 40.8H308.256V56.16H270.752C266.229 56.16 263.925 57.7387 263.84 60.896V61.536ZM267.68 108C264.523 108 261.749 107.445 259.36 106.336C256.971 105.227 254.965 103.733 253.344 101.856C251.723 99.8933 250.485 97.632 249.632 95.072C248.864 92.512 248.48 89.7813 248.48 86.88V85.088H263.84V87.264C263.84 89.2267 264.565 90.6347 266.016 91.488C267.467 92.256 269.045 92.64 270.752 92.64H308.256V108H267.68ZM340.508 86.496C340.508 88.3733 341.191 89.7813 342.556 90.72C344.007 91.5733 345.372 92.1707 346.652 92.512C347.932 92.1707 349.255 91.5733 350.62 90.72C352.071 89.7813 352.796 88.3733 352.796 86.496V60.128C352.796 57.6533 353.436 55.264 354.716 52.96C355.996 50.5707 357.66 48.48 359.708 46.688C361.756 44.896 364.06 43.4453 366.62 42.336C369.265 41.2267 371.953 40.672 374.684 40.672V56.032C372.721 56.032 371.143 56.7573 369.948 58.208C368.753 59.6587 368.156 61.2373 368.156 62.944V87.904C368.156 91.3173 367.516 94.304 366.236 96.864C365.041 99.3387 363.42 101.429 361.372 103.136C359.324 104.757 356.977 105.995 354.332 106.848C351.772 107.701 349.127 108.128 346.396 108.128C343.665 108.128 341.02 107.701 338.46 106.848C335.985 105.995 333.724 104.757 331.676 103.136C329.713 101.429 328.135 99.296 326.94 96.736C325.745 94.176 325.148 91.232 325.148 87.904V62.944C325.148 61.2373 324.551 59.6587 323.356 58.208C322.247 56.7573 320.711 56.032 318.748 56.032V40.672C321.479 40.672 324.124 41.184 326.684 42.208C329.329 43.232 331.676 44.64 333.724 46.432C335.772 48.224 337.393 50.3147 338.588 52.704C339.868 55.008 340.508 57.4827 340.508 60.128V86.496Z" fill="#EAEAEA"/>
<path d="M472.039 82.144H446.823C443.666 82.144 440.892 81.5893 438.503 80.48C436.114 79.3707 434.108 77.8773 432.487 76C430.866 74.1227 429.628 71.9893 428.775 69.6C428.007 67.1253 427.623 64.5227 427.623 61.792V40.8H472.039C474.855 40.8 477.458 41.3547 479.847 42.464C482.236 43.488 484.284 44.9387 485.991 46.816C487.698 48.608 489.02 50.784 489.959 53.344C490.983 55.8187 491.495 58.5067 491.495 61.408C491.495 64.1387 490.898 66.7413 489.703 69.216C488.508 71.6907 486.972 73.9093 485.095 75.872C483.303 77.7493 481.255 79.2853 478.951 80.48C476.647 81.5893 474.343 82.144 472.039 82.144ZM442.983 85.088V108H427.623V85.088H442.983ZM442.983 61.408C442.983 63.3707 443.708 64.7787 445.159 65.632C446.61 66.4 448.188 66.784 449.895 66.784H472.167C473.276 66.3573 474.215 65.7173 474.983 64.864C475.751 64.0107 476.135 62.8587 476.135 61.408C476.135 59.4453 475.452 58.08 474.087 57.312C472.722 56.544 471.1 56.16 469.223 56.16H442.983V61.408ZM555.136 108H520.448C517.291 108 514.517 107.445 512.128 106.336C509.739 105.227 507.733 103.733 506.112 101.856C504.491 99.9787 503.253 97.8453 502.4 95.456C501.632 92.9813 501.248 90.3787 501.248 87.648V40.8H516.608V87.264C516.608 89.2267 517.333 90.6347 518.784 91.488C520.235 92.256 521.813 92.64 523.52 92.64H555.136V108ZM584.823 82.912C578.935 82.912 574.242 81.248 570.743 77.92C567.33 74.592 565.623 69.472 565.623 62.56V61.024C565.623 58.2933 566.05 55.7333 566.903 53.344C567.756 50.8693 568.994 48.6933 570.615 46.816C572.322 44.9387 574.412 43.488 576.887 42.464C579.447 41.3547 582.434 40.8 585.847 40.8H611.831C614.647 40.8 617.25 41.3547 619.639 42.464C622.028 43.488 624.076 44.9387 625.783 46.816C627.49 48.608 628.812 50.784 629.751 53.344C630.775 55.8187 631.287 58.5067 631.287 61.408V108H615.927V82.912H584.823ZM587.895 56.16C585.591 56.16 583.842 56.7147 582.647 57.824C581.538 58.848 580.983 60.1707 580.983 61.792C580.983 62.9867 581.196 63.968 581.623 64.736C582.135 65.504 582.732 66.1013 583.415 66.528C584.098 66.9547 584.823 67.2533 585.591 67.424C586.444 67.5093 587.255 67.552 588.023 67.552H615.927V62.176C615.927 60.2133 615.244 58.72 613.879 57.696C612.514 56.672 610.892 56.16 609.015 56.16H587.895ZM580.983 85.856V108H565.623V85.856H580.983ZM683.348 82.144H660.948C657.791 82.144 655.017 81.5893 652.628 80.48C650.239 79.3707 648.233 77.8773 646.612 76C644.991 74.1227 643.753 71.9893 642.9 69.6C642.132 67.1253 641.748 64.5227 641.748 61.792V40.8H657.108V61.408C657.108 63.3707 657.833 64.7787 659.284 65.632C660.735 66.4 662.313 66.784 664.02 66.784H685.396C688.809 66.784 691.753 67.3387 694.228 68.448C696.788 69.472 698.879 70.9227 700.5 72.8C702.207 74.6773 703.487 76.8533 704.34 79.328C705.193 81.7173 705.62 84.2773 705.62 87.008V87.392C705.62 90.2933 705.108 93.024 704.084 95.584C703.145 98.0587 701.823 100.235 700.116 102.112C698.409 103.904 696.361 105.355 693.972 106.464C691.583 107.488 688.98 108 686.164 108H641.748V92.64H683.348C685.225 92.64 686.847 92.256 688.212 91.488C689.577 90.72 690.26 89.3547 690.26 87.392C690.26 83.8933 687.956 82.144 683.348 82.144ZM705.62 63.712H690.26V40.8H705.62V63.712Z" fill="#EAEAEA"/>
<path d="M198.27 117.398C203.249 112.703 206.046 106.339 206.046 99.7028C206.046 93.0675 203.249 86.7035 198.27 82.0081L179.624 99.5674C177.151 101.89 175.189 104.649 173.85 107.687C172.511 110.726 171.821 113.982 171.821 117.272C171.821 120.562 172.511 123.818 173.85 126.856C175.189 129.894 177.151 132.654 179.624 134.977L198.27 117.398Z" fill="url(#paint0_linear_1_2)"/>
<path d="M166.783 9C164.315 11.3218 162.358 14.0788 161.023 17.1133C159.687 20.1478 159 23.4004 159 26.6851C159 29.9699 159.687 33.2225 161.023 36.257C162.358 39.2915 164.315 42.0485 166.783 44.3703L206.173 81.4656C208.64 83.7872 210.597 86.5441 211.933 89.5791C213.268 92.6135 213.955 95.8661 213.955 99.1509C213.955 102.435 213.268 105.688 211.933 108.723C210.597 111.757 208.64 114.514 206.173 116.836L243.731 81.4656L166.783 9Z" fill="url(#paint1_linear_1_2)"/>
<defs>
<linearGradient id="paint0_linear_1_2" x1="157.531" y1="118.751" x2="213.938" y2="45.1791" gradientUnits="userSpaceOnUse">
<stop stop-color="#02FFE2"/>
<stop offset="1" stop-color="#0088D8"/>
</linearGradient>
<linearGradient id="paint1_linear_1_2" x1="199.525" y1="112.262" x2="202.209" y2="16.3358" gradientUnits="userSpaceOnUse">
<stop stop-color="#02FFE2"/>
<stop offset="1" stop-color="#C108FE"/>
</linearGradient>
</defs>
</svg>
